<svg xmlns="http://www.w3.org/2000/svg" shape-rendering="geometricPrecision" text-rendering="geometricPrecision" image-rendering="optimizeQuality" fill-rule="evenodd" clip-rule="evenodd" viewBox="0 0 512 491.64"><path d="M200.16 331.569c8.989 39.667 33.297 102.627 55.84 149.67 23.28-48.579 49.47-114.129 57.969-153.478l2.429-20.488.745-17.004c31.244-1.677 58.076-4.448 72.925-8.075 19.188-4.676 35.212-11.681 46.235-22.243-17.219-8.277-28.25-22.451-34.582-40.952-14.719-43.035-.763-72.332-7.345-119.05-8.815-62.548-49.695-83.471-90.263-79.151-51.737-42.531-144.6-17.692-169.72 54.988-12.671 36.711-4.983 48.364-6.334 85.541-1.81 50.055-14.85 83.498-43.154 94.158 9.79 11.658 23.805 20.618 42.25 26.64 13.777 4.499 39.424 7.238 69.722 8.671l.335 16.201 2.948 24.572zm-44.358-8.607c-13.959 4.625-30.53 9.119-47.325 13.772C22.967 360.418-3.067 395.624.281 491.64H256l-77.602-90.943-72.102 25.025 49.506-102.76zM256 491.64h255.719c3.268-93.718-21.378-131.55-105.688-154.906-18.133-5.024-36.012-9.867-50.619-14.883l50.292 103.871-72.102-25.025L256 491.64z"/></svg>